<?xml version="1.0" encoding="utf-8"?>
<!-- Generator: Adobe Illustrator 16.0.0, SVG Export Plug-In . SVG Version: 6.00 Build 0)  -->
<!DOCTYPE svg PUBLIC "-//W3C//DTD SVG 1.1//EN" "http://www.w3.org/Graphics/SVG/1.1/DTD/svg11.dtd">
<svg version="1.1" id="Layer_1" xmlns="http://www.w3.org/2000/svg" xmlns:xlink="http://www.w3.org/1999/xlink" x="0px" y="0px"
	 width="150px" height="50px" viewBox="0 0 150 50" enable-background="new 0 0 150 50" xml:space="preserve">
<path fill="#488FCC" d="M50.762,14.919h-3.911l-8.277,22.74h3.047l1.547-4.229H54.4l1.592,4.229h3.002L50.762,14.919 M53.4,30.564
	h-9.233l4.594-12.689L53.4,30.564 M80.232,21.332c0-1.729-0.621-3.229-1.863-4.502c-1.274-1.273-2.759-1.91-4.458-1.91H61.813v22.74
	h2.82v-9.915h6.64l5.685,9.915h3.274l-5.73-9.915c1.608-0.182,2.971-0.894,4.093-2.137C79.688,24.394,80.232,22.969,80.232,21.332
	 M73.911,17.785c0.94,0,1.744,0.348,2.411,1.046c0.728,0.728,1.091,1.562,1.091,2.501c0,0.971-0.363,1.819-1.091,2.547
	c-0.667,0.698-1.471,1.046-2.411,1.046h-9.278v-7.14H73.911 M102.882,14.919h-2.773v13.78c0,1.789-0.622,3.305-1.865,4.549
	c-1.242,1.243-2.744,1.864-4.502,1.864c-1.789,0-3.291-0.621-4.504-1.864c-1.242-1.244-1.864-2.76-1.864-4.549v-13.78h-2.818v13.78
	c0,2.547,0.879,4.715,2.636,6.505c1.82,1.849,4.004,2.773,6.551,2.773c2.516,0,4.684-0.925,6.504-2.773
	c1.759-1.79,2.637-3.958,2.637-6.505V14.919 M124.85,18.33c-2.184-2.274-4.821-3.411-7.914-3.411h-8.55v22.74h8.55
	c3.093,0,5.73-1.107,7.914-3.32c2.243-2.243,3.365-4.896,3.365-7.958C128.215,23.197,127.093,20.513,124.85,18.33 M116.936,17.785
	c2.273,0,4.26,0.833,5.957,2.501c1.639,1.667,2.457,3.7,2.457,6.095c0,2.273-0.818,4.244-2.457,5.912
	c-1.697,1.729-3.684,2.592-5.957,2.592h-5.73v-17.1H116.936 M141.813,14.919h-3.912l-8.231,22.74h2.956l1.547-4.229h11.279
	l1.592,4.229H150L141.813,14.919 M144.405,30.564h-9.142l4.549-12.689L144.405,30.564 M30.25,42.616l9.278-16.6L30.205,9.325H10.193
	L0.87,26.017l9.278,16.6H30.25 M26.703,16.147c1.76,0.94,3.168,2.243,4.23,3.911l-2.411,1.501c-0.758-1.213-1.834-2.183-3.229-2.911
	c-1.243-0.789-2.638-1.182-4.184-1.182c-2.365,0-4.427,0.879-6.186,2.638c-1.697,1.758-2.546,3.85-2.546,6.277v0.455
	c0.12,2.182,0.97,4.077,2.546,5.685c1.637,1.606,3.533,2.47,5.685,2.592l5.23-5.185h-3.184c-1.212-0.363-2.076-1.334-2.592-2.91
	h10.552v10.505c-1.608-0.454-2.577-1.303-2.911-2.547v-2.864l-5.731,5.775v0.091h-0.045h-0.818c-1,0-1.956-0.121-2.866-0.364
	c-1.971-0.516-3.744-1.562-5.321-3.138c-2.153-2.152-3.274-4.699-3.366-7.64v-0.455c0-3.215,1.122-5.974,3.366-8.278
	c2.304-2.274,5.033-3.411,8.187-3.411C23.08,14.692,24.944,15.177,26.703,16.147"/>
<path fill="#FEFEFF" d="M30.933,20.058c-1.062-1.667-2.47-2.971-4.23-3.911c-1.758-0.97-3.623-1.455-5.594-1.455
	c-3.154,0-5.883,1.137-8.187,3.411c-2.244,2.304-3.366,5.063-3.366,8.278v0.455c0.091,2.939,1.212,5.487,3.366,7.639
	c1.577,1.577,3.35,2.623,5.321,3.139c0.91,0.243,1.865,0.364,2.866,0.364h0.818h0.045v-0.092l5.731-5.774v2.864
	c0.333,1.244,1.303,2.093,2.911,2.547V27.018H20.063c0.516,1.575,1.38,2.547,2.592,2.91h3.184l-5.23,5.185
	c-2.152-0.121-4.048-0.985-5.685-2.592c-1.576-1.608-2.426-3.503-2.546-5.685v-0.455c0-2.427,0.849-4.519,2.546-6.277
	c1.758-1.758,3.82-2.638,6.186-2.638c1.546,0,2.941,0.394,4.184,1.183c1.395,0.728,2.472,1.697,3.229,2.911L30.933,20.058z"/>
</svg>
