<?xml version="1.0" encoding="utf-8"?>
<!-- Generator: Adobe Illustrator 16.0.0, SVG Export Plug-In . SVG Version: 6.00 Build 0)  -->
<!DOCTYPE svg PUBLIC "-//W3C//DTD SVG 1.1//EN" "http://www.w3.org/Graphics/SVG/1.1/DTD/svg11.dtd">
<svg version="1.1" id="Layer_1" xmlns="http://www.w3.org/2000/svg" xmlns:xlink="http://www.w3.org/1999/xlink" x="0px" y="0px"
	 width="200px" height="50px" viewBox="0 0 200 50" enable-background="new 0 0 200 50" xml:space="preserve">
<g>
	<path fill="#3D82C4" d="M54.33,14.525h-4.159l-8.802,24.181h3.24l1.645-4.498h11.945l1.693,4.498h3.192L54.33,14.525
		 M57.136,31.161h-9.818l4.885-13.493L57.136,31.161 M85.669,21.344c0-1.838-0.661-3.434-1.981-4.788
		c-1.355-1.354-2.935-2.031-4.741-2.031H66.083v24.181h2.998V28.163h7.062l6.044,10.543h3.482l-6.094-10.543
		c1.71-0.193,3.16-0.95,4.353-2.272C85.089,24.601,85.669,23.085,85.669,21.344 M78.947,17.572c1,0,1.854,0.37,2.564,1.112
		c0.773,0.774,1.16,1.661,1.16,2.66c0,1.032-0.387,1.935-1.16,2.708c-0.709,0.742-1.563,1.112-2.564,1.112h-9.866v-7.593H78.947
		 M109.755,14.525h-2.95v14.654c0,1.902-0.661,3.514-1.982,4.836c-1.322,1.322-2.92,1.983-4.788,1.983
		c-1.903,0-3.5-0.661-4.79-1.983c-1.321-1.322-1.982-2.934-1.982-4.836V14.525h-2.998v14.654c0,2.709,0.935,5.014,2.803,6.917
		c1.936,1.966,4.258,2.948,6.967,2.948c2.674,0,4.98-0.982,6.917-2.948c1.87-1.903,2.804-4.208,2.804-6.917V14.525 M133.114,18.152
		c-2.322-2.418-5.126-3.627-8.415-3.627h-9.092v24.181h9.092c3.289,0,6.093-1.178,8.415-3.531c2.386-2.384,3.579-5.205,3.579-8.462
		C136.693,23.327,135.5,20.474,133.114,18.152 M124.699,17.572c2.417,0,4.529,0.885,6.335,2.66c1.742,1.773,2.612,3.934,2.612,6.481
		c0,2.417-0.87,4.514-2.612,6.287c-1.806,1.839-3.918,2.756-6.335,2.756h-6.094V17.572H124.699 M151.153,14.525h-4.16l-8.753,24.181
		h3.145l1.645-4.498h11.993l1.693,4.498h3.144L151.153,14.525 M153.911,31.161h-9.723l4.838-13.493L153.911,31.161 M32.518,43.978
		l9.867-17.652L32.47,8.576h-21.28L1.275,26.325l9.866,17.652H32.518 M28.746,15.83c1.871,1,3.369,2.386,4.498,4.159l-2.563,1.597
		c-0.806-1.29-1.951-2.321-3.434-3.096c-1.322-0.838-2.805-1.257-4.449-1.257c-2.515,0-4.708,0.935-6.578,2.805
		c-1.805,1.87-2.708,4.094-2.708,6.675v0.483c0.128,2.32,1.032,4.336,2.708,6.047c1.741,1.706,3.757,2.625,6.046,2.755l5.562-5.514
		h-3.386c-1.289-0.386-2.208-1.418-2.756-3.095h11.221v11.171c-1.71-0.482-2.741-1.386-3.095-2.709v-3.045l-6.094,6.142v0.096
		h-0.048h-0.87c-1.064,0-2.08-0.128-3.047-0.387c-2.096-0.549-3.982-1.66-5.658-3.336c-2.29-2.289-3.482-4.997-3.58-8.125v-0.483
		c0-3.419,1.193-6.352,3.58-8.802c2.45-2.419,5.352-3.628,8.706-3.628C24.894,14.283,26.875,14.799,28.746,15.83"/>
	<path fill="#FFFFFF" d="M33.244,19.989c-1.129-1.772-2.627-3.159-4.498-4.159c-1.87-1.032-3.852-1.547-5.948-1.547
		c-3.354,0-6.256,1.209-8.706,3.628c-2.387,2.45-3.58,5.383-3.58,8.802v0.483c0.097,3.127,1.29,5.836,3.58,8.124
		c1.677,1.677,3.562,2.788,5.658,3.337c0.967,0.259,1.983,0.387,3.047,0.387h0.87h0.048v-0.098l6.094-6.14v3.045
		c0.354,1.323,1.385,2.227,3.095,2.709V27.39H21.685c0.549,1.676,1.467,2.709,2.756,3.095h3.386l-5.562,5.514
		c-2.289-0.128-4.305-1.049-6.046-2.755c-1.676-1.713-2.58-3.727-2.708-6.047v-0.483c0-2.581,0.903-4.805,2.708-6.675
		c1.87-1.869,4.063-2.805,6.578-2.805c1.644,0,3.128,0.419,4.449,1.257c1.483,0.774,2.628,1.805,3.434,3.095L33.244,19.989z"/>
	<text transform="matrix(1 0 0 1 134.3379 12.1313)" fill="#3D82C4" font-family="'TwCenMT-Regular'" font-size="9.5706">Beta</text>
	<text transform="matrix(1 0 0 1 160.5664 38.3701)" fill="#3D82C4" font-family="'TwCenMT-Regular'" font-size="12.7608">.Admin</text>
</g>
</svg>
