<?xml version="1.0" encoding="utf-8"?>
<!-- Generator: Adobe Illustrator 16.0.0, SVG Export Plug-In . SVG Version: 6.00 Build 0)  -->
<!DOCTYPE svg PUBLIC "-//W3C//DTD SVG 1.1//EN" "http://www.w3.org/Graphics/SVG/1.1/DTD/svg11.dtd">
<svg version="1.1" xmlns="http://www.w3.org/2000/svg" xmlns:xlink="http://www.w3.org/1999/xlink" x="0px" y="0px"
	 width="858.96px" height="613.276px" viewBox="0 0 858.96 613.276" enable-background="new 0 0 858.96 613.276"
	 xml:space="preserve">
<g id="BG">
	<rect x="-0.465" fill="#FFFFFF" width="859.89" height="613.276"/>
</g>
<g id="Shapes">
	<path fill="#509BD5" d="M-0.465,0.168v228.135c0,0,117.952-184.748,410.476-228.303L-0.465,0.168z"/>
	<path fill="#18457A" d="M-1.622,614.276h414.141c111.544-18.56,210.506-52.571,289.862-100.188
		c-165.429,82.94-408.007,110.649-665.852,56.431c-12.834-2.699-25.545-5.586-38.151-8.614V614.276z"/>
	<path fill="#509BD5" d="M860.582,613.68V384.545c0,0-117.952,185.747-410.476,229.304L860.582,613.68z"/>
	<path fill="#18457A" d="M861.739-0.596H447.599C336.055,17.963,237.093,51.975,157.736,99.592
		c165.429-82.94,408.007-110.649,665.852-56.431c12.834,2.699,25.545,5.585,38.151,8.614V-0.596z"/>
</g>
<g id="Text">
</g>
<g id="Logo">
</g>
</svg>
