<?xml version="1.0" encoding="utf-8"?>
<!-- Generator: Adobe Illustrator 16.0.0, SVG Export Plug-In . SVG Version: 6.00 Build 0)  -->
<!DOCTYPE svg PUBLIC "-//W3C//DTD SVG 1.1//EN" "http://www.w3.org/Graphics/SVG/1.1/DTD/svg11.dtd">
<svg version="1.1" id="Layer_1" xmlns="http://www.w3.org/2000/svg" xmlns:xlink="http://www.w3.org/1999/xlink" x="0px" y="0px"
	 width="800px" height="1000px" viewBox="0 0 800 1000" enable-background="new 0 0 800 1000" xml:space="preserve">
<rect x="3.86" y="4.786" fill="#FFFFFF" width="801.436" height="998.099"/>
<g>
	<defs>
		<rect id="SVGID_1_" x="0.056" y="-0.851" width="801.436" height="998.1"/>
	</defs>
	<clipPath id="SVGID_2_">
		<use xlink:href="#SVGID_1_"  overflow="visible"/>
	</clipPath>
	<polygon clip-path="url(#SVGID_2_)" fill="#0D0D0D" points="242.442,-14.005 897.918,104.787 1151.471,-40.403 1151.471,-70.4 
		242.442,-70.4 	"/>
	<polygon clip-path="url(#SVGID_2_)" fill="#00C0F3" points="1036.331,-16.405 561.564,63.99 346.855,-22.404 346.855,-35.603 
		1041.597,-35.603 	"/>
</g>
<g>
	<polygon fill="#0D0D0D" points="0,997.249 0,844.092 48.454,862.025 231.186,929.638 734.364,958.727 801.548,948.646 
		801.548,997.249 	"/>
	<polygon fill="#0077C0" points="383.482,997.249 0,900.825 0,844.092 48.454,862.025 231.186,929.638 801.548,948.646 
		534.635,997.249 	"/>
	<polygon fill="#00C0F3" points="48.454,862.025 231.186,929.638 801.548,948.646 177.53,997.249 	"/>
</g>
</svg>
